<?xml version="1.0" standalone="no"?>
<!DOCTYPE svg PUBLIC "-//W3C//DTD SVG 20010904//EN"
 "http://www.w3.org/TR/2001/REC-SVG-20010904/DTD/svg10.dtd">
<svg version="1.0" xmlns="http://www.w3.org/2000/svg"
 width="70.000000pt" height="70.000000pt" viewBox="0 0 70.000000 70.000000"
 preserveAspectRatio="xMidYMid meet">
<metadata>
Created by potrace 1.11, written by Peter Selinger 2001-2013
</metadata>
<g transform="translate(0.000000,70.000000) scale(0.100000,-0.100000)"
fill="#000000" stroke="none">
<path d="M253 686 c-102 -33 -176 -98 -222 -196 -21 -46 -26 -69 -25 -141 0
-76 3 -93 32 -151 38 -77 92 -130 171 -166 46 -22 70 -27 141 -27 104 0 174
29 245 100 71 71 100 141 100 245 -1 70 -5 95 -27 141 -57 124 -166 198 -300
204 -43 2 -91 -2 -115 -9z"/>
</g>
</svg>
